<svg xmlns="http://www.w3.org/2000/svg" width="256" height="256" viewBox="0 0 100 100"><rect width="100" height="100" rx="20" fill="#ffffff"></rect><path d="M44.85 85.55L22.83 85.55L22.83 14.45L44.70 14.45Q54.08 14.45 61.47 18.68Q68.87 22.90 73.02 30.69Q77.17 38.48 77.17 48.39L77.17 48.39L77.17 51.66Q77.17 61.57 73.10 69.29Q69.02 77.00 61.60 81.25Q54.17 85.50 44.85 85.55L44.85 85.55ZM44.70 26.32L37.48 26.32L37.48 73.78L44.56 73.78Q53.15 73.78 57.69 68.16Q62.23 62.55 62.33 52.10L62.33 52.10L62.33 48.34Q62.33 37.50 57.84 31.91Q53.34 26.32 44.70 26.32L44.70 26.32Z" fill="#4a90e2"></path></svg>